<?xml version="1.0" encoding="UTF-8" standalone="no"?>
<svg
  xmlns:cc="http://creativecommons.org/ns#"
  xmlns:dc="http://purl.org/dc/elements/1.1/"
  xmlns:inkscape="http://www.inkscape.org/namespaces/inkscape"
  xmlns:rdf="http://www.w3.org/1999/02/22-rdf-syntax-ns#"
  xmlns:sodipodi="http://sodipodi.sourceforge.net/DTD/sodipodi-0.dtd"
  fill="white"
  height="80px"
  id="svg6"
  opacity="0.8"
  stroke-width="0"
  version="1.1"
  viewBox="0 0 80 80"
  width="80px"
  xmlns="http://www.w3.org/2000/svg"
  inkscape:version="0.92.3 (2405546, 2018-03-11)"
  sodipodi:docname="company.svg">
  <defs
    id="defs10"/>
  <metadata
    id="metadata12">
    <rdf:RDF>
      <cc:Work
        rdf:about="">
        <dc:format>image/svg+xml</dc:format>
        <dc:title></dc:title>
        <dc:type
          rdf:resource="http://purl.org/dc/dcmitype/StillImage"/>
      </cc:Work>
    </rdf:RDF>
  </metadata>
  <path
    style="stroke-width:0"
    d="M 67,16 H 13 a 3,3 0 0 0 -3,3 v 42 a 3,3 0 0 0 3,3 h 54 a 3,3 0 0 0 3,-3 V 19 a 3,3 0 0 0 -3,-3 z m -3,33 a 9,9 0 0 0 -9,9 H 25 A 9,9 0 0 0 16,49 V 31 a 9,9 0 0 0 9,-9 h 30 a 9,9 0 0 0 9,9 z"
    id="path2"
    inkscape:connector-curvature="0"/>
  <path
    style="stroke-width:0"
    d="m 40,28 c -6.618,0 -12,5.382 -12,12 0,6.618 5.382,12 12,12 6.618,0 12,-5.382 12,-12 0,-6.618 -5.382,-12 -12,-12 z m 0,18 c -3.309,0 -6,-2.691 -6,-6 0,-3.309 2.691,-6 6,-6 3.309,0 6,2.691 6,6 0,3.309 -2.691,6 -6,6 z"
    id="path4"
    inkscape:connector-curvature="0"/>
  <sodipodi:namedview
    bordercolor="#666666"
    borderopacity="1"
    gridtolerance="10"
    guidetolerance="10"
    id="namedview8"
    objecttolerance="10"
    pagecolor="#ffffff"
    showgrid="false"
    inkscape:current-layer="svg6"
    inkscape:cx="38.816032"
    inkscape:cy="9.2262675"
    inkscape:pageopacity="0"
    inkscape:pageshadow="2"
    inkscape:window-height="1398"
    inkscape:window-maximized="0"
    inkscape:window-width="2560"
    inkscape:window-x="3840"
    inkscape:window-y="20"
    inkscape:zoom="4.9166667"/>
</svg>
