<?xml version="1.0" encoding="UTF-8" standalone="no"?>
<svg
  xmlns:cc="http://creativecommons.org/ns#"
  xmlns:dc="http://purl.org/dc/elements/1.1/"
  xmlns:inkscape="http://www.inkscape.org/namespaces/inkscape"
  xmlns:rdf="http://www.w3.org/1999/02/22-rdf-syntax-ns#"
  xmlns:sodipodi="http://sodipodi.sourceforge.net/DTD/sodipodi-0.dtd"
  fill="white"
  height="80px"
  id="svg4"
  opacity="0.8"
  stroke-width="0"
  version="1.1"
  viewBox="0 0 80 80"
  width="80px"
  xmlns="http://www.w3.org/2000/svg"
  inkscape:version="0.92.3 (2405546, 2018-03-11)"
  sodipodi:docname="list.svg">
  <defs
    id="defs8"/>
  <metadata
    id="metadata10">
    <rdf:RDF>
      <cc:Work
        rdf:about="">
        <dc:format>image/svg+xml</dc:format>
        <dc:title></dc:title>
        <dc:type
          rdf:resource="http://purl.org/dc/dcmitype/StillImage"/>
      </cc:Work>
    </rdf:RDF>
  </metadata>
  <path
    style="stroke-width:0"
    d="m 69.411761,16.47059 h -42.94117 c -0.32353,0 -0.58824,0.2647 -0.58824,0.58823 v 4.11765 c 0,0.32353 0.26471,0.58824 0.58824,0.58824 h 42.94117 c 0.32353,0 0.58824,-0.26471 0.58824,-0.58824 v -4.11765 c 0,-0.32353 -0.26471,-0.58823 -0.58824,-0.58823 z m 0,20.88235 h -42.94117 c -0.32353,0 -0.58824,0.26471 -0.58824,0.58824 v 4.11764 c 0,0.32353 0.26471,0.58824 0.58824,0.58824 h 42.94117 c 0.32353,0 0.58824,-0.26471 0.58824,-0.58824 v -4.11764 c 0,-0.32353 -0.26471,-0.58824 -0.58824,-0.58824 z m 0,20.88235 h -42.94117 c -0.32353,0 -0.58824,0.26471 -0.58824,0.58824 v 4.11765 c 0,0.32353 0.26471,0.58823 0.58824,0.58823 h 42.94117 c 0.32353,0 0.58824,-0.2647 0.58824,-0.58823 v -4.11765 c 0,-0.32353 -0.26471,-0.58824 -0.58824,-0.58824 z M 10.000001,19.11765 a 4.1176471,4.1176471 0 1 0 8.23529,0 4.1176471,4.1176471 0 1 0 -8.23529,0 z m 0,20.88235 a 4.1176471,4.1176471 0 1 0 8.23529,0 4.1176471,4.1176471 0 1 0 -8.23529,0 z m 0,20.88235 a 4.1176471,4.1176471 0 1 0 8.23529,0 4.1176471,4.1176471 0 1 0 -8.23529,0 z"
    id="path2"
    inkscape:connector-curvature="0"/>
  <sodipodi:namedview
    bordercolor="#666666"
    borderopacity="1"
    gridtolerance="10"
    guidetolerance="10"
    id="namedview6"
    objecttolerance="10"
    pagecolor="#ffffff"
    showgrid="false"
    inkscape:current-layer="svg4"
    inkscape:cx="52.028877"
    inkscape:cy="23.606668"
    inkscape:pageopacity="0"
    inkscape:pageshadow="2"
    inkscape:window-height="1398"
    inkscape:window-maximized="0"
    inkscape:window-width="2560"
    inkscape:window-x="3840"
    inkscape:window-y="20"
    inkscape:zoom="6.05"/>
</svg>
